<svg width="278" height="50" viewBox="0 0 278 50" fill="none" xmlns="http://www.w3.org/2000/svg">
<path d="M45.4716 27.6477V22.5341L61.3239 16.1847V21.554L51.2244 25.0483L51.3949 24.7926V25.3892L51.2244 25.1335L61.3239 28.6278V33.9972L45.4716 27.6477ZM85.5764 22.3636H79.5678C79.5252 21.8665 79.4116 21.4155 79.2269 21.0107C79.0494 20.6058 78.8008 20.2578 78.4812 19.9666C78.1687 19.6683 77.7887 19.4411 77.3413 19.2848C76.8938 19.1214 76.386 19.0398 75.8178 19.0398C74.8235 19.0398 73.9819 19.2812 73.293 19.7642C72.6112 20.2472 72.0927 20.9396 71.7376 21.8416C71.3896 22.7436 71.2156 23.8267 71.2156 25.0909C71.2156 26.4261 71.3931 27.5447 71.7482 28.4467C72.1104 29.3416 72.6325 30.0163 73.3143 30.4709C73.9961 30.9183 74.8164 31.142 75.7752 31.142C76.3221 31.142 76.8121 31.0746 77.2454 30.9396C77.6786 30.7976 78.055 30.5952 78.3746 30.3324C78.6942 30.0696 78.9535 29.7536 79.1523 29.3842C79.3583 29.0078 79.4968 28.5852 79.5678 28.1165L85.5764 28.1591C85.5053 29.0824 85.2461 30.0234 84.7987 30.9822C84.3512 31.9339 83.7156 32.8146 82.8917 33.6243C82.0749 34.4268 81.0629 35.0732 79.8555 35.5632C78.6481 36.0533 77.2454 36.2983 75.6474 36.2983C73.6445 36.2983 71.8477 35.8686 70.2567 35.0092C68.6729 34.1499 67.4194 32.8857 66.4961 31.2166C65.5799 29.5476 65.1218 27.5057 65.1218 25.0909C65.1218 22.6619 65.5906 20.6165 66.5281 18.9545C67.4656 17.2855 68.7298 16.0249 70.3207 15.1726C71.9116 14.3132 73.6871 13.8835 75.6474 13.8835C77.0252 13.8835 78.293 14.0717 79.4506 14.4482C80.6083 14.8246 81.6239 15.375 82.4975 16.0994C83.3711 16.8168 84.0742 17.701 84.6069 18.7521C85.1396 19.8033 85.4627 21.0071 85.5764 22.3636ZM96.2324 36.2983C94.4569 36.2983 92.937 35.9467 91.6728 35.2436C90.4086 34.5334 89.4391 33.5462 88.7644 32.282C88.0897 31.0107 87.7523 29.5369 87.7523 27.8608C87.7523 26.1847 88.0897 24.7145 88.7644 23.4503C89.4391 22.179 90.4086 21.1918 91.6728 20.4886C92.937 19.7784 94.4569 19.4233 96.2324 19.4233C98.008 19.4233 99.5279 19.7784 100.792 20.4886C102.056 21.1918 103.026 22.179 103.7 23.4503C104.375 24.7145 104.713 26.1847 104.713 27.8608C104.713 29.5369 104.375 31.0107 103.7 32.282C103.026 33.5462 102.056 34.5334 100.792 35.2436C99.5279 35.9467 98.008 36.2983 96.2324 36.2983ZM96.275 31.9517C96.7722 31.9517 97.2019 31.7848 97.5641 31.451C97.9263 31.1172 98.2069 30.6413 98.4057 30.0234C98.6046 29.4055 98.704 28.6705 98.704 27.8182C98.704 26.9588 98.6046 26.2237 98.4057 25.6129C98.2069 24.995 97.9263 24.5192 97.5641 24.1854C97.2019 23.8516 96.7722 23.6847 96.275 23.6847C95.7495 23.6847 95.2985 23.8516 94.9221 24.1854C94.5456 24.5192 94.258 24.995 94.0591 25.6129C93.8603 26.2237 93.7608 26.9588 93.7608 27.8182C93.7608 28.6705 93.8603 29.4055 94.0591 30.0234C94.258 30.6413 94.5456 31.1172 94.9221 31.451C95.2985 31.7848 95.7495 31.9517 96.275 31.9517ZM113.022 36.2131C111.857 36.2131 110.785 35.9077 109.805 35.2969C108.832 34.6861 108.051 33.7592 107.461 32.5163C106.879 31.2734 106.588 29.7074 106.588 27.8182C106.588 25.8437 106.893 24.2386 107.504 23.0028C108.122 21.767 108.917 20.8615 109.89 20.2862C110.87 19.7109 111.9 19.4233 112.98 19.4233C113.789 19.4233 114.499 19.5653 115.11 19.8494C115.721 20.1264 116.232 20.4993 116.644 20.968C117.056 21.4297 117.369 21.9375 117.582 22.4915H117.667V14.1818H123.548V36H117.71V33.3153H117.582C117.355 33.8693 117.028 34.3665 116.602 34.8068C116.183 35.2401 115.671 35.5845 115.068 35.8402C114.471 36.0888 113.789 36.2131 113.022 36.2131ZM115.195 31.696C115.735 31.696 116.197 31.5398 116.58 31.2273C116.971 30.9077 117.269 30.4602 117.475 29.8849C117.688 29.3026 117.795 28.6136 117.795 27.8182C117.795 27.0085 117.688 26.3161 117.475 25.7408C117.269 25.1584 116.971 24.7145 116.58 24.4091C116.197 24.0966 115.735 23.9403 115.195 23.9403C114.656 23.9403 114.194 24.0966 113.811 24.4091C113.434 24.7145 113.143 25.1584 112.937 25.7408C112.738 26.3161 112.639 27.0085 112.639 27.8182C112.639 28.6278 112.738 29.3239 112.937 29.9062C113.143 30.4815 113.434 30.9254 113.811 31.2379C114.194 31.5433 114.656 31.696 115.195 31.696ZM134.276 36.2983C132.529 36.2983 131.023 35.9645 129.759 35.2969C128.502 34.6222 127.532 33.6562 126.85 32.3991C126.176 31.1349 125.838 29.6222 125.838 27.8608C125.838 26.1705 126.179 24.6932 126.861 23.429C127.543 22.1648 128.505 21.1811 129.748 20.478C130.991 19.7749 132.458 19.4233 134.148 19.4233C135.384 19.4233 136.502 19.6151 137.504 19.9986C138.505 20.3821 139.361 20.9396 140.071 21.6712C140.781 22.3956 141.328 23.2763 141.712 24.3132C142.095 25.3501 142.287 26.5185 142.287 27.8182V29.1818H127.671V25.9432H136.875C136.868 25.4744 136.747 25.0625 136.513 24.7074C136.286 24.3452 135.977 24.0646 135.586 23.8658C135.203 23.6598 134.766 23.5568 134.276 23.5568C133.8 23.5568 133.363 23.6598 132.965 23.8658C132.568 24.0646 132.248 24.3416 132.007 24.6967C131.772 25.0518 131.648 25.4673 131.634 25.9432V29.4375C131.634 29.9631 131.744 30.4318 131.964 30.8438C132.184 31.2557 132.5 31.5788 132.912 31.8132C133.324 32.0476 133.821 32.1648 134.404 32.1648C134.808 32.1648 135.178 32.108 135.512 31.9943C135.852 31.8807 136.144 31.7173 136.385 31.5043C136.627 31.2841 136.804 31.0213 136.918 30.7159H142.287C142.102 31.8523 141.666 32.8395 140.977 33.6776C140.288 34.5085 139.375 35.1548 138.239 35.6165C137.11 36.071 135.789 36.2983 134.276 36.2983ZM147.883 36.3409C147.059 36.3409 146.352 36.0533 145.763 35.478C145.18 34.8956 144.893 34.1889 144.9 33.358C144.893 32.5483 145.18 31.8558 145.763 31.2805C146.352 30.7053 147.059 30.4176 147.883 30.4176C148.664 30.4176 149.353 30.7053 149.95 31.2805C150.553 31.8558 150.859 32.5483 150.866 33.358C150.859 33.9119 150.713 34.4162 150.429 34.8707C150.152 35.3182 149.79 35.6768 149.342 35.9467C148.895 36.2095 148.408 36.3409 147.883 36.3409Z" fill="#8B5CF6"/>
<path d="M153.977 36V14.1818H159.9V31.2273H168.721V36H153.977ZM179.041 36.2983C177.294 36.2983 175.789 35.9645 174.524 35.2969C173.267 34.6222 172.298 33.6562 171.616 32.3991C170.941 31.1349 170.604 29.6222 170.604 27.8608C170.604 26.1705 170.945 24.6932 171.627 23.429C172.308 22.1648 173.271 21.1811 174.514 20.478C175.757 19.7749 177.223 19.4233 178.914 19.4233C180.149 19.4233 181.268 19.6151 182.269 19.9986C183.271 20.3821 184.127 20.9396 184.837 21.6712C185.547 22.3956 186.094 23.2763 186.477 24.3132C186.861 25.3501 187.053 26.5185 187.053 27.8182V29.1818H172.436V25.9432H181.641C181.634 25.4744 181.513 25.0625 181.279 24.7074C181.051 24.3452 180.742 24.0646 180.352 23.8658C179.968 23.6598 179.531 23.5568 179.041 23.5568C178.566 23.5568 178.129 23.6598 177.731 23.8658C177.333 24.0646 177.014 24.3416 176.772 24.6967C176.538 25.0518 176.414 25.4673 176.399 25.9432V29.4375C176.399 29.9631 176.509 30.4318 176.73 30.8438C176.95 31.2557 177.266 31.5788 177.678 31.8132C178.09 32.0476 178.587 32.1648 179.169 32.1648C179.574 32.1648 179.943 32.108 180.277 31.9943C180.618 31.8807 180.909 31.7173 181.151 31.5043C181.392 31.2841 181.57 31.0213 181.683 30.7159H187.053C186.868 31.8523 186.431 32.8395 185.742 33.6776C185.053 34.5085 184.141 35.1548 183.004 35.6165C181.875 36.071 180.554 36.2983 179.041 36.2983ZM194.012 36.2557C192.968 36.2557 192.045 36.0852 191.242 35.7443C190.447 35.3963 189.822 34.8707 189.367 34.1676C188.913 33.4645 188.685 32.5696 188.685 31.483C188.685 30.5881 188.838 29.8246 189.143 29.1925C189.449 28.5533 189.875 28.0312 190.422 27.6264C190.969 27.2216 191.604 26.9126 192.329 26.6996C193.06 26.4865 193.849 26.348 194.694 26.2841C195.61 26.2131 196.345 26.1278 196.899 26.0284C197.46 25.9219 197.865 25.7763 198.114 25.5916C198.362 25.3999 198.487 25.1477 198.487 24.8352V24.7926C198.487 24.3665 198.323 24.0398 197.996 23.8125C197.67 23.5852 197.251 23.4716 196.739 23.4716C196.178 23.4716 195.72 23.5959 195.365 23.8445C195.017 24.0859 194.808 24.4588 194.737 24.9631H189.325C189.396 23.9687 189.712 23.0526 190.273 22.2145C190.841 21.3693 191.668 20.6946 192.755 20.1903C193.842 19.679 195.198 19.4233 196.825 19.4233C197.996 19.4233 199.048 19.5618 199.978 19.8388C200.908 20.1087 201.7 20.4886 202.354 20.9787C203.007 21.4616 203.504 22.0298 203.845 22.6832C204.193 23.3295 204.367 24.0327 204.367 24.7926V36H198.87V33.6989H198.742C198.415 34.3097 198.018 34.8033 197.549 35.1797C197.087 35.5561 196.558 35.8295 195.962 36C195.372 36.1705 194.722 36.2557 194.012 36.2557ZM195.93 32.5483C196.377 32.5483 196.796 32.456 197.187 32.2713C197.585 32.0866 197.908 31.8203 198.156 31.4723C198.405 31.1243 198.529 30.7017 198.529 30.2045V28.8409C198.373 28.9048 198.206 28.9652 198.028 29.022C197.858 29.0788 197.673 29.1321 197.474 29.1818C197.283 29.2315 197.077 29.2777 196.857 29.3203C196.643 29.3629 196.42 29.402 196.185 29.4375C195.731 29.5085 195.358 29.6257 195.067 29.7891C194.783 29.9453 194.57 30.1406 194.428 30.375C194.293 30.6023 194.225 30.858 194.225 31.142C194.225 31.5966 194.385 31.9446 194.705 32.1861C195.024 32.4276 195.433 32.5483 195.93 32.5483ZM207.177 36V19.6364H212.887V22.7472H213.058C213.356 21.5966 213.828 20.755 214.475 20.2223C215.128 19.6896 215.892 19.4233 216.765 19.4233C217.021 19.4233 217.273 19.4446 217.521 19.4872C217.777 19.5227 218.022 19.576 218.257 19.647V24.6648C217.965 24.5653 217.607 24.4908 217.181 24.4411C216.754 24.3913 216.389 24.3665 216.083 24.3665C215.508 24.3665 214.99 24.4979 214.528 24.7607C214.073 25.0163 213.715 25.3786 213.452 25.8473C213.189 26.3089 213.058 26.8523 213.058 27.4773V36H207.177ZM226.066 26.7955V36H220.185V19.6364H225.767V22.7472H225.938C226.293 21.7102 226.918 20.897 227.813 20.3075C228.715 19.718 229.766 19.4233 230.966 19.4233C232.124 19.4233 233.129 19.6896 233.981 20.2223C234.84 20.7479 235.504 21.4723 235.973 22.3956C236.449 23.3189 236.683 24.3736 236.676 25.5597V36H230.796V26.7955C230.803 25.9858 230.597 25.3501 230.178 24.8885C229.766 24.4268 229.191 24.196 228.452 24.196C227.969 24.196 227.546 24.3026 227.184 24.5156C226.829 24.7216 226.556 25.0199 226.364 25.4105C226.172 25.794 226.073 26.2557 226.066 26.7955ZM256.252 13.1591L249.221 39.2812H244.235L251.266 13.1591H256.252ZM274.752 29.6932L258.899 36.0426V30.6733L268.999 27.179L268.828 27.4347V26.8381L268.999 27.0938L258.899 23.5994V18.2301L274.752 24.5795V29.6932Z" fill="#5E60CE"/>
<g clip-path="url(#clip0_43_109)">
<path d="M15.1238 4.07364C19.4129 9.58486 21.7025 16.3811 21.6195 23.3549V25.0196L23.0346 25.8911C24.863 27.0114 26.2266 28.749 26.877 30.7873C26.306 30.3618 25.7086 29.9726 25.0885 29.622L21.3149 27.4775L20.6368 31.8057C20.5781 32.1882 20.4994 32.5673 20.401 32.9416H9.82706C9.66983 32.452 9.54208 31.9624 9.42416 31.4532L8.5692 27.5362L5.09043 29.4947C4.50925 29.8237 3.94813 30.1866 3.41001 30.5817C4.07301 28.5669 5.40816 26.8391 7.19342 25.6855L8.53972 24.8139V23.2667C8.56401 16.3213 10.8812 9.57671 15.1337 4.07364H15.1238ZM15.1337 0C14.9131 0.000542093 14.7002 0.0805356 14.5342 0.225225L14.4458 0.303564C8.77907 6.61894 5.63242 14.7853 5.60144 23.257C3.19676 24.8116 1.41677 27.1588 0.572529 29.8885C-0.271714 32.6181 -0.126525 35.5566 0.982726 38.1904C2.15126 35.6187 4.10467 33.4803 6.56449 32.0799C6.81118 33.1447 7.13972 34.1891 7.54719 35.2037C7.59887 35.3987 7.71341 35.5714 7.8732 35.6953C8.033 35.8191 8.2292 35.8872 8.43162 35.8891H22.0716C22.3467 35.8891 22.6219 35.6248 22.7595 35.2135C23.1571 34.2489 23.4344 33.2392 23.5849 32.2072C26.0495 33.6017 28.0044 35.7419 29.1667 38.3177C30.3429 35.6968 30.525 32.7398 29.6792 29.9954C28.8334 27.2509 27.0172 24.9054 24.5676 23.394C24.6648 14.8724 21.5348 6.62749 15.8019 0.303564C15.7165 0.208451 15.6121 0.132277 15.4952 0.079982C15.3784 0.0276867 15.2519 0.000437151 15.1238 0L15.1337 0Z" fill="#8B5CF6"/>
<path d="M15.1239 22.4442C14.3691 22.4441 13.6312 22.2215 13.0032 21.8042C12.3752 21.3869 11.8852 20.7937 11.5951 20.0994C11.3049 19.405 11.2275 18.6406 11.3726 17.9025C11.5177 17.1644 11.8789 16.4856 12.4106 15.9518C12.9422 15.4179 13.6206 15.0528 14.3602 14.9025C15.0998 14.7522 15.8675 14.8235 16.5665 15.1073C17.2655 15.3911 17.8645 15.8748 18.2881 16.4973C18.7116 17.1199 18.9408 17.8534 18.9466 18.6056V18.6056C18.9584 19.093 18.8736 19.5779 18.6972 20.0327C18.5208 20.4874 18.2562 20.9031 17.9186 21.256C17.5809 21.6088 17.1768 21.8919 16.7293 22.089C16.2818 22.2862 15.7997 22.3936 15.3106 22.405C15.2487 22.4149 15.1857 22.4149 15.1239 22.405V22.4442Z" fill="#8B5CF6"/>
<path d="M20.4403 38.3274C20.1944 38.3196 19.9494 38.3608 19.7197 38.4486C19.49 38.5363 19.2802 38.6689 19.1026 38.8386C18.925 39.0083 18.7833 39.2115 18.6856 39.4365C18.5879 39.6615 18.5363 39.9037 18.5338 40.1488V45.9264C18.5338 46.4302 18.7347 46.9134 19.0922 47.2697C19.4497 47.6259 19.9346 47.8261 20.4403 47.8261C20.9459 47.8261 21.4308 47.6259 21.7883 47.2697C22.1458 46.9134 22.3467 46.4302 22.3467 45.9264V40.2272C22.3546 39.983 22.3136 39.7396 22.2261 39.5114C22.1386 39.2831 22.0064 39.0745 21.8372 38.8977C21.668 38.7209 21.4651 38.5794 21.2405 38.4815C21.0158 38.3836 20.7739 38.3312 20.5287 38.3274H20.4403Z" fill="#5E60CE"/>
<path d="M9.8271 38.3275C9.57704 38.3143 9.32687 38.3514 9.09148 38.4365C8.8561 38.5216 8.6403 38.6531 8.45693 38.823C8.27356 38.9929 8.12637 39.1979 8.02411 39.4256C7.92185 39.6534 7.86662 39.8994 7.86169 40.1488V45.9264C7.86169 46.4302 8.06255 46.9134 8.42008 47.2697C8.77761 47.6259 9.26252 47.8261 9.76814 47.8261C10.2738 47.8261 10.7587 47.6259 11.1162 47.2697C11.4737 46.9134 11.6746 46.4302 11.6746 45.9264V40.2272C11.6824 39.983 11.6414 39.7397 11.554 39.5114C11.4665 39.2832 11.3343 39.0745 11.1651 38.8977C10.9959 38.7209 10.793 38.5794 10.5684 38.4815C10.3437 38.3836 10.1017 38.3312 9.85658 38.3275H9.8271Z" fill="#5E60CE"/>
<path d="M14.9863 38.3274C14.7411 38.3222 14.4972 38.3652 14.2687 38.454C14.0402 38.5427 13.8314 38.6754 13.6544 38.8446C13.4773 39.0137 13.3355 39.216 13.2369 39.4397C13.1383 39.6635 13.0849 39.9045 13.0798 40.1488V48.1101C13.0798 48.6139 13.2807 49.0971 13.6382 49.4534C13.9957 49.8096 14.4807 50.0098 14.9863 50.0098C15.4919 50.0098 15.9768 49.8096 16.3343 49.4534C16.6919 49.0971 16.8927 48.6139 16.8927 48.1101V40.2761C16.9006 40.0319 16.8596 39.7886 16.7721 39.5604C16.6846 39.3321 16.5524 39.1235 16.3832 38.9467C16.214 38.7699 16.0111 38.6284 15.7865 38.5305C15.5618 38.4326 15.3199 38.3802 15.0747 38.3764L14.9863 38.3274Z" fill="#5E60CE"/>
</g>
<defs>
<clipPath id="clip0_43_109">
<rect width="30.1887" height="50" fill="white"/>
</clipPath>
</defs>
</svg>
